<svg width="40" height="40" viewBox="0 0 40 40" fill="none" xmlns="http://www.w3.org/2000/svg">
<path fill-rule="evenodd" clip-rule="evenodd" d="M20 5C11.5493 5 5 11.1901 5 19.5503C5 23.9235 6.79276 27.7022 9.71127 30.3129C9.95573 30.5332 10.1036 30.838 10.1157 31.167L10.1972 33.835C10.2243 34.6861 11.1026 35.2384 11.8813 34.8974L14.8571 33.5845C15.1107 33.4728 15.3913 33.4517 15.6569 33.5241C17.0241 33.9014 18.4819 34.1006 20 34.1006C28.4507 34.1006 35 27.9105 35 19.5503C35 11.1901 28.4507 5 20 5ZM29.006 16.1942L24.5996 23.1841C23.8994 24.2948 22.3964 24.5724 21.3461 23.7847L17.8421 21.1559C17.5191 20.9145 17.0785 20.9175 16.7586 21.159L12.0262 24.7505C11.3954 25.2304 10.5684 24.4728 10.994 23.8028L15.4004 16.8129C16.1006 15.7022 17.6036 15.4245 18.6539 16.2123L22.1579 18.841C22.4809 19.0825 22.9215 19.0795 23.2414 18.838L27.9738 15.2465C28.6046 14.7666 29.4316 15.5241 29.006 16.1942Z" fill="white"/>
</svg>
