<svg width="40" height="40" viewBox="0 0 40 40" fill="none" xmlns="http://www.w3.org/2000/svg">
<path d="M15.1553 31.1061C14.3509 31.1061 14.4876 30.7976 14.2101 30.0198L11.8447 22.1133L30.0526 11.1426" fill="#E1E1E1"/>
<path d="M15.1553 31.1066C15.776 31.1066 16.0503 30.8183 16.3967 30.4762L19.7073 27.2068L15.5778 24.6777" fill="#CDCDCD"/>
<path d="M15.5774 24.6785L25.5835 32.1867C26.7253 32.8266 27.5494 32.4953 27.8338 31.11L31.9068 11.6166C32.3238 9.91861 31.2695 9.14848 30.1772 9.65215L6.26066 19.0184C4.62813 19.6834 4.63765 20.6085 5.96308 21.0206L12.1006 22.9662L26.3096 13.8618C26.9804 13.4487 27.596 13.6708 27.0907 14.1262" fill="white"/>
</svg>
