<svg width="40" height="40" viewBox="0 0 40 40" fill="none" xmlns="http://www.w3.org/2000/svg">
<path d="M31.6139 8.62038C30.8258 7.89045 27.6498 5.55658 20.5762 5.52297C20.5762 5.52297 12.2303 5.01394 8.16178 8.78845C5.89727 11.0791 5.09971 14.431 5.019 18.5897C4.93355 22.7484 4.82436 30.5327 12.2493 32.6457H12.254L12.2493 35.868C12.2493 35.868 12.2018 37.1742 13.0516 37.4383C14.077 37.76 14.6799 36.7708 15.6627 35.6999C16.1991 35.114 16.9444 34.2496 17.5046 33.5917C22.5796 34.0239 26.4867 33.0347 26.9282 32.8906C27.9536 32.5545 33.755 31.8005 34.6949 24.0162C35.6682 15.9917 34.2249 10.911 31.6139 8.62038ZM32.4732 23.4399C31.6756 29.9421 26.9709 30.3551 26.1069 30.6336C25.7366 30.7536 22.309 31.618 17.9984 31.3299C17.9984 31.3299 14.7844 35.2485 13.7827 36.2714C13.626 36.4298 13.4409 36.4971 13.3174 36.4634C13.1465 36.4202 13.0991 36.2137 13.0991 35.9112C13.1038 35.479 13.1275 30.5568 13.1275 30.5568C13.1228 30.5568 13.1228 30.5568 13.1275 30.5568C6.8515 28.7944 7.21704 22.1625 7.28826 18.6906C7.35947 15.2186 8.00511 12.3757 9.91831 10.4644C13.3602 7.31418 20.448 7.7848 20.448 7.7848C26.4345 7.81361 29.3019 9.63364 29.9665 10.2435C32.1741 12.1596 33.2992 16.7361 32.4732 23.4399Z" fill="white"/>
<path fill-rule="evenodd" clip-rule="evenodd" d="M20.6939 15.8833C20.7057 15.6601 20.894 15.4887 21.1147 15.5006C21.9411 15.545 22.6289 15.7972 23.1185 16.3087C23.6064 16.8184 23.8449 17.5307 23.8858 18.3871C23.8965 18.6104 23.7262 18.8001 23.5055 18.8109C23.2848 18.8217 23.0972 18.6495 23.0865 18.4262C23.0515 17.6931 22.8532 17.1953 22.5436 16.8718C22.2356 16.5501 21.765 16.3461 21.0723 16.3089C20.8516 16.297 20.6822 16.1065 20.6939 15.8833Z" fill="white"/>
<path fill-rule="evenodd" clip-rule="evenodd" d="M20.087 13.7071C20.1026 13.4842 20.294 13.3163 20.5144 13.3321C22.1987 13.4531 23.5511 14.0383 24.536 15.1237C25.5151 16.2027 25.9774 17.5416 25.9421 19.1138C25.937 19.3373 25.7539 19.5144 25.5329 19.5093C25.312 19.5042 25.137 19.3189 25.142 19.0954C25.1732 17.7095 24.7714 16.5801 23.9465 15.671C23.1274 14.7684 21.9827 14.2491 20.4577 14.1395C20.2373 14.1237 20.0713 13.9301 20.087 13.7071Z" fill="white"/>
<path fill-rule="evenodd" clip-rule="evenodd" d="M19.3828 11.6336C19.3842 11.4101 19.5645 11.23 19.7855 11.2315C22.1083 11.2465 24.0754 12.0319 25.6499 13.5842L25.6503 13.5846C27.2374 15.1544 28.0251 17.2831 28.0447 19.9361C28.0464 20.1597 27.8686 20.3422 27.6476 20.3439C27.4266 20.3455 27.2462 20.1657 27.2445 19.9422C27.2261 17.457 26.4947 15.552 25.0911 14.1636C23.6748 12.7674 21.9105 12.0547 19.7804 12.0409C19.5594 12.0395 19.3814 11.8571 19.3828 11.6336Z" fill="white"/>
<path d="M21.1733 23.8291C21.1733 23.8291 21.7383 23.8772 22.0373 23.4978L22.626 22.7486C22.9109 22.3741 23.5992 22.1388 24.2734 22.5181C24.6484 22.7342 25.3225 23.152 25.7403 23.4642C26.1866 23.7955 27.1028 24.5687 27.1028 24.5687C27.5396 24.9384 27.6393 25.4859 27.3449 26.0621C27.3449 26.0669 27.3402 26.0717 27.3402 26.0717C27.0364 26.6144 26.6281 27.1282 26.1106 27.6036C26.1059 27.6084 26.1059 27.6084 26.1011 27.6132C25.6786 27.9686 25.2608 28.1751 24.8526 28.2231C24.8051 28.2327 24.7434 28.2375 24.6722 28.2327C24.4918 28.2327 24.3161 28.2087 24.1404 28.1511L24.1262 28.1319C23.4948 27.9542 22.4456 27.5028 20.6938 26.528C19.5545 25.8941 18.6097 25.2458 17.8122 24.6023C17.3897 24.2661 16.9576 23.882 16.5161 23.4402C16.5019 23.4257 16.4876 23.4113 16.4734 23.3969C16.4592 23.3825 16.4449 23.3681 16.4307 23.3537C16.4164 23.3393 16.4022 23.3249 16.388 23.3105C16.3737 23.2961 16.3595 23.2817 16.3452 23.2673C15.9085 22.8207 15.5287 22.3837 15.1964 21.9563C14.5602 21.1495 13.9193 20.1891 13.2927 19.0413C12.3289 17.2693 11.8827 16.2081 11.707 15.5694L11.688 15.555C11.6311 15.3773 11.6026 15.1996 11.6073 15.0171C11.6026 14.9451 11.6073 14.8827 11.6168 14.8346C11.6643 14.4216 11.8684 13.9991 12.2197 13.5717C12.2245 13.5669 12.2245 13.5669 12.2292 13.5621C12.6992 13.0386 13.2025 12.6256 13.7437 12.3183C13.7484 12.3183 13.7532 12.3135 13.7532 12.3135C14.3228 12.0158 14.864 12.1166 15.2296 12.5584C15.2343 12.5632 15.9939 13.4852 16.3215 13.9366C16.6301 14.364 17.0478 15.0411 17.2567 15.4205C17.6318 16.1024 17.3991 16.7987 17.0289 17.0869L16.2883 17.6823C15.9132 17.9897 15.9607 18.5563 15.9607 18.5563C15.9607 18.5563 17.0621 22.7678 21.1733 23.8291Z" fill="white"/>
</svg>
