<svg width="40" height="40" viewBox="0 0 40 40" fill="none" xmlns="http://www.w3.org/2000/svg">
<path fill-rule="evenodd" clip-rule="evenodd" d="M34.2657 14.1511C34.4881 13.4876 34.2657 13 33.207 13H29.7062C28.8161 13 28.4057 13.4212 28.1831 13.8857C28.1831 13.8857 26.4029 17.7674 23.8808 20.2888C23.0649 21.0187 22.694 21.2509 22.2489 21.2509C22.0264 21.2509 21.7043 21.0187 21.7043 20.3552V14.1511C21.7043 13.3549 21.446 13 20.7041 13H15.2028C14.6466 13 14.312 13.3696 14.312 13.7198C14.312 14.4746 15.573 14.6487 15.703 16.7721V21.3837C15.703 22.3947 15.4988 22.578 15.0538 22.578C13.867 22.578 10.9801 18.679 9.26791 14.2175C8.93236 13.3503 8.59581 13 7.7011 13H4.20029C3.20006 13 3 13.4212 3 13.8857C3 14.7151 4.18685 18.829 8.52619 24.27C11.4191 27.9858 15.4949 30 19.2038 30C21.4291 30 21.7044 29.5526 21.7044 28.782V25.9737C21.7044 25.0789 21.9152 24.9004 22.6198 24.9004C23.1391 24.9004 24.0292 25.1326 26.1062 26.9242C28.4798 29.0475 28.8712 30 30.2063 30H33.7071C34.7074 30 35.2075 29.5526 34.919 28.6698C34.6033 27.7899 33.47 26.5132 31.9662 24.9999C31.1502 24.1373 29.9263 23.2084 29.5554 22.7438C29.0362 22.1467 29.1845 21.8813 29.5554 21.3505C29.5554 21.3505 33.8206 15.9758 34.2657 14.1511Z" fill="white"/>
</svg>
