<svg width="40" height="40" viewBox="0 0 40 40" fill="none" xmlns="http://www.w3.org/2000/svg">
<path d="M34 19.6394C34 27.1724 27.8465 33.2788 20.2545 33.2788C17.8443 33.2788 15.58 32.6628 13.6101 31.5817L6 34L8.48111 26.682C7.22951 24.6268 6.50867 22.2164 6.50867 19.6394C6.50867 12.1065 12.6628 6 20.2545 6C27.8472 6 34 12.1065 34 19.6394ZM20.2545 8.17218C13.8817 8.17218 8.69796 13.3164 8.69796 19.6394C8.69796 22.1485 9.51587 24.4722 10.8994 26.3625L9.45551 30.6213L13.8966 29.2098C15.7213 30.4079 17.9072 31.1067 20.2548 31.1067C26.6267 31.1067 31.8113 25.9631 31.8113 19.64C31.8113 13.317 26.627 8.17218 20.2545 8.17218ZM27.1957 22.7807C27.1108 22.6416 26.8864 22.5576 26.5498 22.3906C26.2126 22.2235 24.5556 21.4143 24.2476 21.3032C23.9387 21.1919 23.7134 21.1359 23.4891 21.4703C23.2648 21.8051 22.6189 22.5576 22.422 22.7807C22.2254 23.0044 22.0291 23.0324 21.6918 22.865C21.3552 22.698 20.2697 22.3445 18.9827 21.2059C17.9812 20.3198 17.3048 19.226 17.1082 18.8909C16.9119 18.5564 17.0877 18.3757 17.256 18.2092C17.4078 18.0593 17.5932 17.8188 17.7616 17.6237C17.9305 17.4284 17.9865 17.2893 18.0982 17.0659C18.2111 16.8428 18.1548 16.6478 18.0702 16.4801C17.9862 16.313 17.3117 14.6679 17.0311 13.9984C16.7504 13.3295 16.4701 13.4408 16.2732 13.4408C16.0769 13.4408 15.852 13.4128 15.6273 13.4128C15.4027 13.4128 15.0375 13.4965 14.7285 13.831C14.4199 14.1657 13.5497 14.9746 13.5497 16.6195C13.5497 18.2646 14.7565 19.8541 14.9255 20.0768C15.0938 20.2996 17.2557 23.7853 20.681 25.124C24.1067 26.4621 24.1067 26.0156 24.7245 25.9596C25.3418 25.904 26.7175 25.1511 26.9994 24.3708C27.2794 23.5893 27.2794 22.9201 27.1957 22.7807Z" fill="white"/>
</svg>
